<?xml version="1.0" encoding="UTF-8"?>
<svg width="16px" height="16px" viewBox="0 0 16 16" version="1.1" xmlns="http://www.w3.org/2000/svg" xmlns:xlink="http://www.w3.org/1999/xlink">
    <!-- Generator: sketchtool 52.3 (67297) - http://www.bohemiancoding.com/sketch -->
    <title>18FB53D9-3492-412F-B826-55611F919BFD</title>
    <desc>Created with sketchtool.</desc>
    <g id="20181211" stroke="none" stroke-width="1" fill="none" fill-rule="evenodd">
        <g id="管理员_仪表盘_总" transform="translate(-934.000000, -254.000000)" fill="#FFFFFF" fill-rule="nonzero">
            <g id="Group-6" transform="translate(904.000000, 217.000000)">
                <g id="UI-Icon/Icon/user/$ui-05" transform="translate(30.000000, 37.000000)">
                    <path d="M4,13.7453107 C5.13383348,14.5361852 6.51275186,15 8,15 C9.48724814,15 10.8661665,14.5361852 12,13.7453107 L12,12.5 C12,11.6715729 11.3284271,11 10.5,11 L5.5,11 C4.67157288,11 4,11.6715729 4,12.5 L4,13.7453107 Z M3,12.8989827 L3,12.5 C3,11.1192881 4.11928813,10 5.5,10 L10.5,10 C11.8807119,10 13,11.1192881 13,12.5 L13,12.8989827 C14.237187,11.6364456 15,9.90730507 15,8 C15,4.13400675 11.8659932,1 8,1 C4.13400675,1 1,4.13400675 1,8 C1,9.90730507 1.76281298,11.6364456 3,12.8989827 Z M8,16 C3.581722,16 0,12.418278 0,8 C0,3.581722 3.581722,0 8,0 C12.418278,0 16,3.581722 16,8 C16,12.418278 12.418278,16 8,16 Z" id="Combined-Shape"></path>
                    <path d="M8,8 C9.1045695,8 10,7.1045695 10,6 C10,4.8954305 9.1045695,4 8,4 C6.8954305,4 6,4.8954305 6,6 C6,7.1045695 6.8954305,8 8,8 Z M8,9 C6.34314575,9 5,7.65685425 5,6 C5,4.34314575 6.34314575,3 8,3 C9.65685425,3 11,4.34314575 11,6 C11,7.65685425 9.65685425,9 8,9 Z" id="Oval-17"></path>
                </g>
            </g>
        </g>
    </g>
</svg>